<svg xmlns="http://www.w3.org/2000/svg" width="1240" height="1240"><path d="M597 21.08c-101.694 5.476-198.108 35.679-284 88.969-60.649 37.627-117.497 89.695-160.991 147.451C84.729 346.843 44.869 450.765 34.45 564c-4.021 43.689-2.343 268.112 2.597 347.5 5.636 90.577 16.836 147.179 37.201 188 35.118 70.395 97.794 98.67 238.252 107.481 40.845 2.563 72.334 3.171 191.5 3.701 145.664.648 164.072.133 206-5.762 100.388-14.114 194.128-52.765 274.5-113.18 49.162-36.956 93.017-81.968 128.509-131.9 55.027-77.416 90.381-166.31 103.937-261.34 5.248-36.787 5.569-44.971 5.348-136.5-.365-151.58-3.785-227.082-13.325-294.091-18.784-131.958-64.012-192.846-164.438-221.38C999.642 33.774 941.877 26.566 855.9 22.988c-58.828-2.447-225.998-3.679-258.9-1.908m184 197.024c-57.022 4.619-104.355 24.635-138.691 58.651-30.626 30.338-49.136 69.977-55.45 118.745-1.651 12.753-1.389 524.665.273 533.271 1.918 9.93 9.153 16.479 19.99 18.093 2.958.441 26.317.539 51.908.219l46.53-.583 4.961-2.555c6.211-3.198 10.965-9.32 12.387-15.951.744-3.472 1.092-34.314 1.092-96.917 0-101.349-.258-97.087 6.293-103.911 1.764-1.838 5.007-4.314 7.207-5.504l4-2.162 95-.5c93.725-.493 95.06-.528 99.5-2.59 6.231-2.893 11.574-9.138 13.506-15.783 1.369-4.708 1.545-11.932 1.29-52.791L950.5 600.5l-2.872-5.85c-3.326-6.772-8.796-10.877-16.776-12.588-3.287-.705-35.616-1.062-96.242-1.062-100.496 0-97.753.161-104.235-6.121-6.626-6.423-6.498-4.635-6.122-85.516.333-71.684.375-73 2.575-81.363 7.034-26.727 22.954-42.825 49.672-50.228 7.942-2.201 8.704-2.221 105.5-2.744 89.303-.484 97.805-.672 101.129-2.241 5.859-2.765 9.45-6.386 11.913-12.014l2.308-5.273-.208-47c-.122-27.658-.636-49.169-1.25-52.271-1.347-6.81-6.002-12.895-12.374-16.174l-4.963-2.555-93.528-.123c-51.44-.068-98.252.259-104.027.727m-374 362.52c-43.642 3.585-77.146 14.288-107 34.184-41.939 27.949-71.895 73.803-82.883 126.869-5.622 27.148-5.614 26.958-5.615 132.823l-.002 98 2.338 4.747c1.286 2.611 4.191 6.334 6.456 8.273 7.376 6.313 8.905 6.48 59.338 6.48 28.949 0 47.105-.394 50.362-1.092 6.633-1.423 12.753-6.176 15.951-12.389l2.555-4.963.532-94.528c.525-93.221.562-94.632 2.702-102.043 8.213-28.44 26.085-46.884 53.437-55.149 7.112-2.148 9.109-2.231 67.329-2.775 65.307-.611 63.02-.402 70.137-6.403 1.725-1.455 4.2-4.786 5.5-7.402l2.363-4.756v-100l-2.859-5.823c-3.355-6.833-8.487-11.004-15.409-12.527-4.523-.995-115.268-2.344-125.232-1.526" fill="undefined" fill-rule="evenodd"/></svg>