<svg xmlns="http://www.w3.org/2000/svg" width="1240" height="1240"><path d="M597.5 26.618c-101.206 4.654-197.91 33.597-282.066 84.422C193.103 184.92 101.698 299.733 57.6 434.903a593.247 593.247 0 000 368.194c44.098 135.17 135.503 249.983 257.834 323.863 76.875 46.428 162.79 74.22 255.566 82.672 25.204 2.295 74.796 2.295 100 0 92.776-8.452 178.691-36.244 255.566-82.672 122.331-73.88 213.736-188.693 257.834-323.863a593.247 593.247 0 000-368.194c-44.098-135.17-135.503-249.983-257.834-323.863C849.943 64.764 762.275 36.354 672 28.542c-17.604-1.523-59.62-2.608-74.5-1.924m178 154.873c-4.4.686-12.275 1.791-17.5 2.456s-11.075 1.593-13 2.063c-1.925.47-6.65 1.599-10.5 2.507-3.85.909-8.125 2.012-9.5 2.452a331.905 331.905 0 01-7 2.095c-2.475.713-4.95 1.581-5.5 1.929-.55.349-4.247 1.876-8.215 3.395-3.969 1.519-10.727 4.64-15.019 6.937a2720.606 2720.606 0 01-11.602 6.175c-6.619 3.485-20.835 14.643-30.552 23.979-19.844 19.069-33.977 41.296-44.521 70.021-3.016 8.214-8.234 28.758-9.732 38.307-.577 3.681-1.28 20.643-1.562 37.693-.491 29.656.133 43.954 2.813 64.5.538 4.125 1.419 12 1.958 17.5.538 5.5 1.438 14.275 1.999 19.5.562 5.225 1.413 14.45 1.893 20.5 2.229 28.131 3.103 38.802 4.012 49 2.768 31.048 2.175 69.424-1.546 100-.87 7.15-1.824 15.813-2.12 19.25-.566 6.568-2.109 8.107-4.009 4-.573-1.237-2.761-7.65-4.863-14.25-3.408-10.702-5.844-17.31-9.954-27-.699-1.65-2.302-5.475-3.562-8.5-3.192-7.669-13.691-28.02-19.108-37.04-19.518-32.502-45.809-60.661-74.045-79.306-9.803-6.473-30.162-17.654-32.146-17.654-.353 0-2.548-.847-4.88-1.882-11.755-5.218-24.719-8.687-45.739-12.242-9.512-1.608-40.643-1.599-52.5.016-20.24 2.756-40.15 7.18-50 11.108-1.1.439-3.575 1.365-5.5 2.057-63.751 22.929-108.358 76.473-125.334 150.443-3.782 16.482-4.784 22.882-8.154 52.112-1.972 17.102-1.99 56.068-.036 75.888.814 8.25 1.95 20.175 2.526 26.5 3.24 35.586 12.144 72.57 24.314 101 14.998 35.034 35.119 60.447 62.185 78.538 15.427 10.311 36.952 19.97 52.499 23.557 23.879 5.509 36.639 6.905 63.119 6.905 25.661 0 40.909-1.711 59.881-6.721l8.5-2.243c2.745-.724 12.14-4.03 17-5.982 7.388-2.967 24.812-11.817 32.566-16.54 34.374-20.942 68.079-55.935 102.011-105.909 5.267-7.758 10.217-14.219 11-14.358.986-.175 3.376 4.751 7.78 16.037 3.496 8.959 7.115 17.847 8.041 19.752.927 1.905 2.407 5.264 3.289 7.464 4.123 10.281 16.159 35.22 22.925 47.5 5.731 10.4 19.554 31.199 25.92 39 21.078 25.828 47.231 45.718 73.655 56.015 4.297 1.675 8.713 3.43 9.813 3.901 1.1.471 4.025 1.41 6.5 2.086 2.475.676 5.625 1.592 7 2.034 3.112 1 14.545 3.476 22.5 4.872 19.13 3.357 47.988 4.013 68.5 1.556 17.486-2.094 21.222-2.867 45.5-9.411 4.151-1.119 15.434-5.246 21.5-7.865 1.375-.593 4.75-2.041 7.5-3.217 41.141-17.596 81.905-51.914 106.871-89.971 17.36-26.463 30.441-56.48 36.606-84 6.976-31.139 9.014-49.176 9.02-79.828.007-38.012-4.948-68.54-15.285-94.172-.776-1.925-2-5.039-2.719-6.919-2.045-5.35-8.789-17.894-13.754-25.581-7.427-11.499-16.458-22.371-27.919-33.612-19.899-19.517-39.294-33.595-82.758-60.072-4.916-2.995-9.096-5.917-9.287-6.492-.192-.576 3.605-4.176 8.438-7.999 13.727-10.859 31.035-27.093 41.357-38.791 28.688-32.513 41.914-61.104 48.127-104.034 1.797-12.41 1.756-56.677-.061-66-7.788-39.978-24.25-70.993-51.762-97.52-23.698-22.85-48.585-36.897-84.874-47.906-6.254-1.897-26.356-5.956-35-7.067a1369.36 1369.36 0 01-18.79-2.582c-12.056-1.755-47.782-1.715-59.21.066m11 52.533c-15.684 2.382-23.204 4.428-33.244 9.048-28.869 13.283-48.078 37.558-58.106 73.428-6.802 24.329-8.109 42.064-8.144 110.5-.019 35.982-.554 66.123-1.474 83-.795 14.575-1.702 32.8-2.016 40.5-.314 7.7-1.006 19.175-1.539 25.5-.533 6.325-1.401 16.9-1.93 23.5-.528 6.6-1.201 13.575-1.495 15.5-.294 1.925-1.221 8.9-2.06 15.5-.838 6.6-1.937 14.25-2.44 17-.504 2.75-1.439 8.15-2.079 12-1.482 8.92-5.255 27.621-7.969 39.5-1.89 8.272-8.07 31.174-10.525 39-1.466 4.675-3.016 9.85-3.445 11.5-.95 3.653-6.101 19.453-10.759 33a54392.7 54392.7 0 00-4.536 13.191c-1.221 3.548-1.5 2.398 6.503 26.797 9.481 28.902 16.061 45.206 27.365 67.802 18.773 37.527 39.978 61.591 70.393 79.885 8.328 5.009 30.479 12.406 44 14.693 23.785 4.023 38.834 4.018 64.5-.022 19.517-3.073 41.997-11.734 57.5-22.154 26.619-17.893 47.552-47.316 58.83-82.692 5.37-16.842 5.964-19.28 9.137-37.537 4.595-26.433 3.65-78.132-2.048-111.963-7.228-42.915-22.612-79.636-46.919-111.987-8.009-10.66-36.982-41.055-40.068-42.035-1.089-.345-3.823.533-6.642 2.134-12.294 6.986-24.668 11.875-38.554 15.235-6.478 1.568-26.932 1.393-33.973-.289-9.894-2.365-19.94-8.031-26.676-15.046-8.169-8.508-10.439-13.747-10.401-24.014.025-6.727.471-8.874 2.801-13.472 3.672-7.246 13.575-17 20.513-20.203 9.586-4.427 11.095-4.886 20.876-6.354 8.477-1.273 10.784-1.259 20.1.125 17.038 2.529 25.363 5.095 40.583 12.507 5.532 2.695 10.337 4.899 10.678 4.899.728 0 18.314-35.536 22.27-45 1.494-3.575 3.105-7.4 3.581-8.5 4.661-10.787 11.878-38.102 13.871-52.5.647-4.675 1.596-10.938 2.109-13.917 1.192-6.928 1.22-58.445.034-64.784-.493-2.639-1.44-7.949-2.102-11.799-1.315-7.64-5.508-22.967-7.039-25.736-.529-.955-.961-2.184-.961-2.731 0-2.085-8.122-17.964-13.083-25.579-12.784-19.621-36.412-37.666-56.667-43.277-9.988-2.767-12.278-3.245-22.378-4.674-13.365-1.89-21.24-1.777-36.372.521M368 546.496c-15.414 1.802-23.406 4.017-36.998 10.252-7.824 3.589-17.789 10.883-25.163 18.416-13.31 13.6-22.408 29.368-29.937 51.888-3.588 10.731-4.428 13.957-7.018 26.948-1.845 9.253-4.064 24.91-5.315 37.5-1.458 14.671-1.755 74.762-.44 89 1.935 20.957 4.755 41.929 6.856 51 .51 2.2 1.647 7.055 2.527 10.789 7.083 30.046 21.629 56.412 39.246 71.134 19.105 15.965 44.019 23.642 76.242 23.493 29.197-.136 54.191-7.93 78.779-24.566 22.228-15.04 39.716-33.373 59.475-62.35 16-23.464 39.746-67.631 39.746-73.927 0-9.509-18.085-64.387-29.61-89.853-1.315-2.903-2.39-5.536-2.39-5.85 0-1.58-16.666-33.437-22.9-43.775-30.09-49.895-66.244-80.912-103.1-88.45-16.345-3.344-23.122-3.623-40-1.649" fill="undefined" fill-rule="evenodd"/></svg>